# xmcd
#
# Track frame offsets: 
#        150
#        15231
#        29884
#        43691
#        57785
#        70311
#        82083
#        94810
#        107655
#        121673
#        135703
#        150315
#        164425
#        177688
#        189008
#        202592
#        217076
#        230992
#        244415
#        257852
#
# Disc length: 3602 seconds
#
# Revision: 2
# Processed by: cddbd v1.5.2PL0 Copyright (c) Steve Scherf et al.
# Submitted via: ExactAudioCopy v1.3
#
DISCID=1a0e1014
DTITLE=Arthur Crudup - The Ultimate Jazz Archive Set 14
DYEAR=2005
DGENRE=Blues
TTITLE0=Black Pony Blues
TTITLE1=Death Valley Blues
TTITLE2=If I Get Lucky
TTITLE3=Kind Lover Blues
TTITLE4=Standing At My Window
TTITLE5=Mean Old 'frisco Blues
TTITLE6=Gonna Follow My Baby
TTITLE7=Give Me a 32-20
TTITLE8=My Mama Don't Allow Me
TTITLE9=Raised To My Hand
TTITLE10=Who's Been Foolin' You
TTITLE11=Cool Disposition
TTITLE12=Rock Me Mama
TTITLE13=Keep Your Arms Around Me
TTITLE14=I'm In The Mood
TTITLE15=That's Your Red Wagon
TTITLE16=Dirt Road Blues
TTITLE17=She's Gone
TTITLE18=Boy Friend Blues
TTITLE19=No More Lovers
EXTD=YEAR: 2005
EXTT0=
EXTT1=
EXTT2=
EXTT3=
EXTT4=
EXTT5=
EXTT6=
EXTT7=
EXTT8=
EXTT9=
EXTT10=
EXTT11=
EXTT12=
EXTT13=
EXTT14=
EXTT15=
EXTT16=
EXTT17=
EXTT18=
EXTT19=
PLAYORDER=
